<?xml version="1.0" encoding="UTF-8" standalone="no"?>
<svg xmlns:dc="http://purl.org/dc/elements/1.1/" xmlns:cc="http://creativecommons.org/ns#"
   xmlns:rdf="http://www.w3.org/1999/02/22-rdf-syntax-ns#"
   xmlns:svg="http://www.w3.org/2000/svg" xmlns="http://www.w3.org/2000/svg"
   width="1042" height="1042" viewBox="0 0 1042 1042" version="1.1"
   style="shape-rendering:geometricPrecision; text-rendering:geometricPrecision; image-rendering:optimizeQuality">
<metadata><rdf:RDF><cc:Work rdf:about=""><dc:format>image/svg+xml</dc:format>
  <dc:type rdf:resource="http://purl.org/dc/dcmitype/StillImage" /></cc:Work></rdf:RDF></metadata>
<!-- old red FE0000 -->
<path style="fill:#be0a2f;fill-opacity:1" d="M252.279,591.176L286.737,614.25L272.234,653.556C232.934,775.307,387.154,886.23,490.339,810.769L521.444,786.135L552.548,810.769C655.733,886.23,809.954,775.307,770.653,653.556L756.152,614.25L756.125,614.178L756.151,614.25H756.152L790.608,591.176C893.968,515.589,834.777,335.43,707.019,335.43L666.831,337.029L655.961,298.247C616.659,176.49,426.231,176.491,386.928,298.247L376.057,337.029L335.868,335.43C208.111,335.43,148.92,515.589,252.279,591.176Z"/>
<path style="fill:#FFFFFF" d="M276.865,557.637L420.033,655.586L407.313,694.993L321.964,637.84L311.799,666.256C284.058,752.197,392.918,830.495,465.754,777.229L601.739,671.58L635.197,696.047L554.699,759.799L577.133,777.229C649.969,830.495,758.83,752.197,731.089,666.256L672.479,502.402L705.877,477.979L741.464,574.438L741.802,574.207L766.023,557.637C838.981,504.281,797.201,377.11,707.019,377.11L678.308,377.976L636.236,379.244L534.641,382.308L521.886,342.796L624.462,338.715L616.396,310.947C588.654,225.001,454.235,225.002,426.492,310.947L378.211,477.142H336.783L364.58,377.976L335.868,377.11C245.687,377.11,203.906,504.281,276.865,557.637Z"/>
<path style="fill:#002768;fill-opacity:1" d="M427.925,477.142H477.635L521.444,341.426L521.886,342.796L573.618,340.738L568.921,326.187C555.05,283.214,487.839,283.215,473.968,326.187L430.158,461.904C428.527,466.958,427.828,472.088,427.925,477.142Z
M306.366,517.389L435.297,608.302L450.56,561.018L335.868,477.142H336.783L350.734,427.372L335.868,427.125C290.778,427.125,269.887,490.712,306.366,517.389Z
M359.274,681.496C345.404,724.466,399.834,763.615,436.252,736.982L561.592,642.219L521.444,612.858L406.751,696.735L407.313,694.993L364.469,666.303L359.274,681.496Z
M592.327,561.018L636.136,696.735L635.197,696.047L594.805,728.037L606.635,736.982C643.053,763.615,697.484,724.466,683.613,681.496L632.403,531.71L592.327,561.018Z
M549.946,429.725L565.252,477.142H705.568L705.877,477.979L723.741,526.401L736.521,517.389C773,490.712,752.109,427.125,707.019,427.125L549.946,429.725Z"/>
<g transform="scale(0.001,0.001)" style="fill:#000000">
  <path
  d="M190035 792683l8290 8888 -10167 20903 19829 21264 21231 -9037 7788 8352 -72350 29193 -7562 -8108 32941 -71455zm-6104 38360l-15622 30526 30994 -14041 -15372 -16485zm-37413 -102817l5485 8779 -48340 30207 58827 -13424 5024 8008 -38620 47273 48996 -30636 5486 8779 -61758 38591 -8101 -12964 40270 -48658 -61704 14357 -7324 -11721 61759 -38591zm-27374 -58417l22236 49941 -66528 29620 -21558 -48417 8835 -3935 17204 38641 18917 -8422 -16112 -36188 8788 -3913 16111 36188 21156 -9419 -17882 -40163 8833 -3933zm-19666 -72091l3457 12968 -12146 13284c-1734,1845 -3233,3524 -4515,5056 -1284,1520 -2345,2839 -3184,3961 -839,1122 -1545,2158 -2095,3134 -550,975 -952,1860 -1210,2637 -274,780 -439,1516 -544,2217 -105,701 -162,1458 -185,2276 62,552 159,1235 310,2056 151,824 383,1815 694,2974l2679 10001 30759 -8242 2769 10338 -70342 18848 -8372 -31242c-1656,-6182 -2300,-11102 -1929,-14740 371,-3638 1926,-6920 4647,-9840 2650,-2799 5978,-4743 9973,-5813 5056,-1355 9780,-862 14150,1471 3898,2115 7178,5982 9815,11576 462,-1953 1021,-3536 1663,-4744 1804,-3382 4210,-6772 7230,-10188l16376 -17988zm-46404 30435c-3061,820 -5287,2625 -6691,5436 -1404,2811 -1436,6685 -103,11661l5700 21274 21692 -5813 -5108 -19068c-1088,-4058 -2357,-7118 -3816,-9213 -1438,-2083 -3240,-3464 -5399,-4111 -2143,-651 -4229,-714 -6275,-166zm43900 -51601l1304 10623 -72281 8875 -1304 -10623 72281 -8875zm-27961 -72678c8340,2005 14655,5614 18932,10824 4275,5229 6472,11609 6604,19161 135,7751 -1355,14131 -4485,19154 -3113,5024 -7698,8905 -13737,11645 -3028,1338 -6128,2325 -9302,2997 -3155,673 -6518,1048 -10069,1110 -7551,132 -14177,-1186 -19879,-3956 -5683,-2768 -10057,-6810 -13067,-12159 -3028,-5334 -4598,-11209 -4711,-17627 -63,-3669 328,-7043 1191,-10076 865,-3050 2217,-5857 4055,-8425 3566,-5014 8938,-8660 16118,-10936l2635 10459c-5338,1844 -9163,4329 -11444,7436 -1074,1519 -1894,3252 -2443,5196 -550,1944 -812,4066 -772,6383 92,5317 1453,9746 4067,13318 2613,3573 6108,6046 10484,7438 4360,1392 8874,2046 13525,1965 6033,-105 11237,-1064 15625,-2857 4403,-1811 7673,-4537 9794,-8209 2137,-3672 3168,-7642 3093,-11909 -89,-5134 -1632,-9459 -4645,-12959 -3012,-3499 -7706,-5918 -14117,-7240l2548 -10733zm33156 -72159l-1691 12036 -22643 5253 -4047 28793 20385 10813 -1590 11309 -68219 -37856 1544 -10979 76261 -19369zm-33654 19397l-33554 7070 30417 15252 3137 -22322zm51916 -83181l-2937 10240 -62885 20124 52775 15134 -2841 9904 -70002 -20073 2932 -10225 62906 -20137 -52791 -15137 2839 -9903 70004 20073zm73813 -124096l-7902 10847 -17968 -1079c-2525,-186 -4773,-296 -6771,-325 -1988,-44 -3683,-37 -5082,16 -1400,54 -2648,158 -3753,345 -1105,186 -2044,430 -2811,718 -778,279 -1454,614 -2065,973 -612,360 -1236,791 -1886,1290 -390,395 -859,899 -1403,1534 -544,635 -1169,1440 -1874,2411l-6086 8375 25762 18718 -6291 8659 -58916 -42805 19011 -26168c3763,-5178 7180,-8775 10241,-10776 3062,-2000 6589,-2857 10572,-2582 3844,299 7448,1663 10794,4093 4236,3077 6823,7058 7761,11922 810,4361 -132,9343 -2819,14913 1809,-871 3390,-1431 4733,-1692 3765,-727 7913,-990 12467,-793l24286 1406zm-52856 -16909c-2564,-1862 -5366,-2456 -8435,-1779 -3068,677 -6100,3090 -9127,7257l-12945 17818 18167 13201 11604 -15970c2469,-3399 4049,-6312 4759,-8763 713,-2428 653,-4699 -202,-6783 -843,-2076 -2108,-3737 -3821,-4981zm98004 -27056l-39982 37283 -49666 -53260 38762 -36146 6595 7072 -30933 28847 14122 15143 28970 -27016 6561 7036 -28971 27016 15794 16936 32154 -29983 6594 7072zm16648 -103692l18404 76016 -8672 6073 -64906 -43455 9519 -6666 45430 32180c1555,1089 2967,2116 4242,3095 838,615 2134,1620 3919,3037 -1139,-3253 -2111,-6561 -2928,-9879l-14049 -54070 9041 -6331zm85989 -4546c3316,6505 4961,13040 4952,19630 -4,6569 -1755,12459 -5258,17630 -1754,2578 -3765,4876 -6024,6868 -2245,1986 -4826,3713 -7694,5174 -6089,3103 -12291,4411 -18588,3913 -6305,-510 -12002,-2659 -17094,-6483 -5084,-3809 -9095,-8595 -12024,-14344 -5450,-10696 -6852,-20572 -4198,-29614 2638,-9035 8565,-15910 17759,-20594 6062,-3089 12188,-4432 18374,-4010 6190,400 11889,2550 17092,6409 5212,3876 9441,9019 12703,15421zm-9812 4942c-2581,-5065 -5705,-9068 -9351,-11999 -3639,-2918 -7648,-4580 -12020,-4972 -4365,-378 -8594,468 -12678,2550 -5868,2989 -9868,7553 -12006,13675 -2130,6137 -812,13906 3994,23337 3831,7517 8864,12401 15098,14687 6253,2279 12407,1874 18468,-1214 6181,-3149 10178,-7935 11963,-14347 1800,-6419 642,-13650 -3468,-21717zm82057 9848l-43714 14204 -22504 -69260 10178 -3307 19517 60063 33536 -10896 2987 9196zm64214 -43288c1251,7092 1447,12916 572,17454 -872,4555 -3211,8574 -7049,12060 -3837,3488 -9212,5840 -16140,7062 -6700,1181 -12387,999 -17080,-560 -4694,-1560 -8361,-4400 -11000,-8522 -2640,-4122 -4635,-9967 -5965,-17504l-7283 -41310 10540 -1859 7275 41262c1086,6156 2432,10525 4020,13088 1585,2565 3867,4364 6823,5384 2958,1035 6342,1217 10167,542 6601,-1164 11080,-3510 13423,-7023 1146,-1759 1824,-4147 2022,-7161 199,-2998 -98,-6704 -874,-11103l-7276 -41262 10541 -1859 7284 41311zm75076 -32451l-23688 -413 -1102 63144 -10703 -187 1102 -63144 -23587 -411 169 -9670 57977 1012 -168 9669zm22901 66141l-10623 -1305 8874 -72282 10624 1305 -8875 72282zm89474 -18342c-1643,7114 -4583,13177 -8826,18220 -4224,5031 -9352,8417 -15360,10126 -3001,847 -6018,1314 -9029,1390 -2996,78 -6083,-259 -9219,-983 -6660,-1537 -12250,-4522 -16755,-8950 -4501,-4444 -7484,-9753 -8928,-15955 -1446,-6186 -1441,-12430 10,-18717 2701,-11696 7974,-20163 15819,-25384 7828,-5226 16788,-6681 26843,-4361 6628,1532 12184,4440 16650,8739 4486,4286 7471,9594 8975,15898 1502,6317 1437,12976 -180,19977zm-10694 -2521c1278,-5540 1458,-10614 549,-15203 -911,-4575 -2914,-8425 -6011,-11535 -3102,-3096 -6885,-5166 -11351,-6197 -6418,-1482 -12415,-555 -17988,2759 -5577,3333 -9559,10131 -11941,20445 -1898,8220 -1182,15196 2127,20956 3323,5765 8298,9411 14926,10941 6758,1560 12897,463 18387,-3301 5504,-3760 9265,-10044 11302,-18865zm66577 65925l-9733 -4332 -11177 -65074 -22330 50155 -9412 -4190 29620 -66528 9717 4326 11186 65096 22337 -50171 9412 4190 -29620 66528zm121944 64320c-2196,2618 -4816,4600 -7858,5942 -3031,1330 -5903,1926 -8600,1795 -2711,-143 -5575,-957 -8616,-2443 -3028,-1474 -6249,-3654 -9659,-6515l-21367 -17928 46810 -55787 21023 17639c4291,3601 7231,7048 8809,10330 859,1700 1446,3412 1736,5114 280,1716 293,3489 6,5337 -524,3608 -1874,6720 -4070,9337 -2026,2414 -4596,4153 -7685,5218 -2751,891 -5719,1056 -8904,495 1999,3505 2921,6999 2788,10501 -137,3976 -1604,7619 -4413,10965zm9449 -33074c1426,-1699 2271,-3536 2548,-5501 275,-1989 -136,-3858 -1237,-5631 -1102,-1773 -3634,-4333 -7593,-7655l-10473 -8788 -13127 15645 11366 9539c1571,1318 2967,2403 4164,3233 1210,840 2245,1449 3141,1808 2168,970 4190,1231 6078,769 1890,-461 3600,-1593 5133,-3419zm-17903 25979c1564,-1864 2460,-3941 2685,-6233 214,-2280 -321,-4470 -1604,-6570 -1273,-2090 -3645,-4581 -7080,-7464l-12197 -10234 -15036 17919 13169 11049c2336,1961 4010,3235 5032,3808 1007,562 1921,1003 2742,1322 832,306 1665,506 2536,584 1572,251 3234,36 4997,-640 914,-387 1749,-840 2507,-1378 745,-551 1498,-1268 2249,-2163zm10785 43793l-7021 -8078 54961 -47777 7022 8077 -54962 47778zm67292 49629c-7982,3142 -15225,3808 -21717,1992 -6502,-1830 -11960,-5797 -16400,-11908 -4556,-6271 -6996,-12351 -7312,-18262 -331,-5900 1198,-11709 4572,-17418 1713,-2832 3687,-5420 5900,-7790 2201,-2361 4739,-4597 7613,-6685 6110,-4439 12293,-7159 18552,-8161 6244,-993 12145,-189 17680,2465 5539,2633 10195,6545 13967,11737 2158,2968 3772,5957 4804,8937 1041,2995 1545,6070 1511,9227 -44,6153 -2353,12220 -6930,18203l-8157 -7055c3314,-4573 5024,-8802 5109,-12656 8,-1860 -313,-3750 -979,-5659 -665,-1906 -1667,-3796 -3029,-5670 -3126,-4302 -6780,-7150 -10970,-8577 -4189,-1427 -8471,-1449 -12854,-78 -4370,1360 -8443,3412 -12206,6146 -4882,3548 -8594,7317 -11161,11303 -2567,4009 -3683,8118 -3315,12342 356,4234 1789,8078 4297,11530 3019,4154 6763,6812 11238,7950 4475,1140 9708,428 15717,-2165l4070 10252zm8850 75886l-23104 -49546 66001 -30776 22400 48034 -8765 4087 -17875 -38334 -18767 8751 16741 35900 -8718 4066 -16741 -35901 -20989 9787 18580 39845 -8763 4087zm20258 69248l-2937 -10240 42664 -50390 -52774 15132 -2841 -9904 70004 -20074 2932 10226 -42677 50411 52791 -15138 2841 9904 -70003 20073zm70693 58446l-3298 -23460 -62539 8789 -1490 -10601 62539 -8789 -3283 -23361 9577 -1346 8069 57423 -9575 1345zm-65011 74113l954 -54658 72813 1271 -926 52992 -9669 -169 739 -42290 -20703 -362 -692 39607 -9618 -168 691 -39607 -23155 -404 -766 43957 -9668 -169zm-14953 71351l2396 -10380 61745 -23389 -53494 -12350 2318 -10039 70958 16381 -2393 10365 -61766 23401 53511 12355 -2318 10037 -70957 -16381zm-26767 69397l3818 -9946 64399 -14566 -51254 -19676 3692 -9619 67987 26098 -3811 9930 -64423 14578 51272 19681 -3693 9618 -67987 -26098zm-12956 21178l5189 -9361 63694 35306 -5189 9361 -63694 -35306zm-47036 69411l6971 -9957 22559 5599 16678 -23817 -13254 -18888 6550 -9355 43598 64701 -6359 9081 -76743 -17364zm38792 -2005l33106 8934 -20177 -27398 -12929 18464zm-78295 39979l33064 -31930 50588 52386 -7699 7435 -43871 -45430 -25365 24494 -6717 -6955z" />
  <path
  d="M309582 975035l-9006 -4393 24236 -49689c-2610,674 -5611,1159 -9001,1416 -3837,298 -7595,284 -11237,-46l4283 -8781c5690,85 10835,-538 15454,-1868 4617,-1326 8394,-3102 11317,-5294l6010 2931 -32056 65724zm85806 -35102c-5983,3140 -12392,7775 -19253,13877 -3288,2941 -6419,6094 -9436,9481 -3003,3392 -5794,6892 -8339,10494 -2113,2958 -3868,5652 -5273,8094 -1911,3345 -3415,6635 -4528,9868l-9599 -3306c1026,-2978 2343,-5982 3938,-8977 1611,-2989 3641,-6328 6103,-9994 2275,-3379 4743,-6655 7431,-9801 2694,-3165 5613,-6215 8764,-9168 5938,-5519 11613,-9861 17026,-12986l-32474 -11182 3149 -9142 44989 15490 -2498 7252zm57665 13688c-5621,3748 -11512,9028 -17697,15814 -2962,3269 -5747,6732 -8395,10416 -2631,3687 -5041,7458 -7196,11308 -1791,3162 -3256,6024 -4398,8601 -1550,3525 -2702,6955 -3471,10286l-9891 -2284c707,-3070 1703,-6195 2976,-9340 1290,-3140 2961,-6674 5026,-10576 1909,-3599 4021,-7115 6365,-10526 2350,-3428 4933,-6767 7758,-10032 5329,-6111 10518,-11021 15576,-14695l-33464 -7726 2175 -9422 46361 10704 -1725 7472zm53562 44397c-316,4524 -1592,8679 -3829,12467 -2237,3789 -5178,6641 -8822,8559 -3644,1919 -7677,2722 -12101,2412 -7502,-524 -13428,-3712 -17782,-9565 -2153,-2925 -3647,-6656 -4516,-11180 -853,-4538 -1058,-9967 -615,-16305 975,-13936 4263,-23919 9883,-29960 4964,-5268 11313,-7632 19047,-7091 5788,404 10397,2364 13847,5865 1735,1692 3096,3743 4064,6167 985,2409 1559,5191 1722,8344l-9897 44c-639,-3773 -1574,-6411 -2772,-7933 -2078,-2535 -4773,-3911 -8082,-4142 -2595,-182 -4992,403 -7175,1754 -2695,1734 -4991,4448 -6887,8143 -861,1795 -1607,3848 -2204,6181 -614,2329 -1017,4976 -1227,7970 2090,-2395 4502,-4148 7221,-5263 3205,-1378 6555,-1948 10063,-1702 6037,422 10989,2991 14872,7691 1985,2430 3405,5085 4272,7969 852,2886 1162,6083 918,9575zm-10217 -163c331,-4722 -672,-8536 -3007,-11474 -2352,-2939 -5416,-4540 -9225,-4807 -3758,-262 -7063,877 -9898,3420 -2836,2542 -4417,6040 -4727,10482 -205,2927 216,5748 1244,8493 1029,2731 2617,4880 4762,6451 2147,1570 4394,2429 6772,2596 3509,246 6637,-990 9418,-3704 2762,-2697 4317,-6534 4661,-11457zm51374 2046l-28237 493 -176 -10067 28237 -494 176 10068zm41223 18507l-9965 1048 -5779 -54982c-1856,1956 -4143,3956 -6883,5971 -3096,2286 -6289,4265 -9554,5917l-1021 -9717c4870,-2944 8904,-6200 12117,-9773 3211,-3573 5475,-7081 6792,-10488l6649 -698 7644 72722zm60345 -51732c2058,8918 2737,16307 2033,22150 -703,5844 -2708,10653 -6000,14407 -3287,3770 -7569,6264 -12833,7480 -5555,1282 -10501,765 -14831,-1538 -2155,-1179 -4006,-2754 -5597,-4747 -1573,-1999 -2919,-4495 -4058,-7499l9115 -3063c1675,3925 3656,6496 5923,7719 2271,1237 4850,1515 7741,847 2501,-578 4559,-1668 6158,-3269 893,-874 1629,-1763 2211,-2650 582,-887 1053,-1886 1417,-2979 360,-1110 659,-2411 873,-3933 213,-1519 368,-3147 431,-4872 82,-3578 -293,-7119 -1098,-10611 -38,-163 -76,-325 -109,-471 81,203 163,406 240,594 -285,767 -860,1756 -1732,2949 -1008,1413 -2134,2684 -3373,3842 -2645,2407 -5744,4030 -9301,4851 -5896,1361 -11398,356 -16520,-2996 -5122,-3370 -8491,-8547 -10104,-15531 -1661,-7197 -858,-13509 2386,-18945 3264,-5425 8112,-8889 14560,-10378 2404,-554 4715,-780 6912,-671 2182,112 4414,590 6699,1449 4412,1616 8161,4514 11244,8679 3084,4165 5621,10560 7613,19186zm-13155 -8136c-1106,-4792 -3243,-8269 -6399,-10449 -3156,-2181 -6479,-2867 -9973,-2060 -3589,828 -6396,3050 -8439,6653 -2038,3620 -2504,7833 -1390,12658 998,4321 3084,7501 6247,9559 3160,2060 6636,2660 10404,1790 3754,-866 6548,-2914 8406,-6132 1874,-3222 2251,-7228 1144,-12019zm58263 -35983c-2565,6251 -4495,13923 -5829,23006 -627,4367 -999,8795 -1134,13329 -119,4528 -10,9003 357,13399 283,3624 670,6815 1163,9591 688,3789 1651,7276 2875,10467l-9478 3639c-1129,-2941 -2051,-6089 -2754,-9408 -688,-3324 -1278,-7188 -1749,-11579 -430,-4051 -645,-8147 -608,-12284 31,-4156 305,-8370 821,-12656 1001,-8046 2557,-15019 4695,-20894l-32063 12309 -3465 -9028 44421 -17051 2748 7160zm68484 11743c1988,4075 2961,8311 2917,12710 -43,4400 -1164,8340 -3360,11823 -2197,3483 -5289,6197 -9274,8141 -6759,3296 -13485,3498 -20183,606 -3326,-1457 -6486,-3942 -9500,-7425 -3008,-3503 -5900,-8101 -8685,-13811 -6125,-12558 -8268,-22847 -6420,-30889 1664,-7044 5980,-12266 12949,-15664 5215,-2544 10185,-3151 14923,-1843 2350,597 4553,1692 6603,3308 2058,1594 3946,3715 5664,6365l-8549 4986c-2440,-2948 -4569,-4765 -6367,-5485 -3067,-1155 -6088,-999 -9070,455 -2338,1140 -4122,2845 -5337,5106 -1467,2850 -2098,6348 -1893,10497 152,1983 533,4135 1182,6453 633,2325 1607,4819 2923,7516 612,-3119 1824,-5843 3622,-8167 2086,-2798 4701,-4965 7863,-6507 5439,-2652 11013,-2904 16725,-775 2935,1111 5492,2702 7686,4767 2178,2072 4046,4685 5581,7833zm-8930 4966c-2074,-4255 -4851,-7056 -8342,-8434 -3506,-1368 -6959,-1224 -10391,450 -3386,1652 -5679,4291 -6864,7910 -1183,3620 -803,7441 1149,11442 1286,2638 3061,4870 5324,6734 2256,1849 4705,2917 7350,3204 2644,287 5020,-92 7163,-1137 3160,-1542 5252,-4176 6303,-7916 1043,-3717 472,-7817 -1692,-12253z" />
</g></svg>
